<svg width="166" height="130" viewBox="0 0 166 130" fill="none" xmlns="http://www.w3.org/2000/svg">
<path d="M160.328 47C160.328 47.7163 159.749 48.2969 159.035 48.2969C158.321 48.2969 157.742 47.7163 157.742 47C157.742 46.2837 158.321 45.7031 159.035 45.7031C159.749 45.7031 160.328 46.2837 160.328 47Z" fill="#DC143C"/>
<path d="M155.156 47C155.156 47.7163 154.577 48.2969 153.863 48.2969C153.15 48.2969 152.57 47.7163 152.57 47C152.57 46.2837 153.15 45.7031 153.863 45.7031C154.577 45.7031 155.156 46.2837 155.156 47Z" fill="#DC143C"/>
<path d="M160.328 52.1875C160.328 52.9038 159.749 53.4844 159.035 53.4844C158.321 53.4844 157.742 52.9038 157.742 52.1875C157.742 51.4712 158.321 50.8906 159.035 50.8906C159.749 50.8906 160.328 51.4712 160.328 52.1875Z" fill="#DC143C"/>
<path d="M160.328 57.375C160.328 58.0913 159.749 58.6719 159.035 58.6719C158.321 58.6719 157.742 58.0913 157.742 57.375C157.742 56.6587 158.321 56.0781 159.035 56.0781C159.749 56.0781 160.328 56.6587 160.328 57.375Z" fill="#DC143C"/>
<path d="M155.156 52.1875C155.156 52.9038 154.577 53.4844 153.863 53.4844C153.15 53.4844 152.57 52.9038 152.57 52.1875C152.57 51.4712 153.15 50.8906 153.863 50.8906C154.577 50.8906 155.156 51.4712 155.156 52.1875Z" fill="#DC143C"/>
<path d="M149.984 47C149.984 47.7163 149.405 48.2969 148.691 48.2969C147.978 48.2969 147.398 47.7163 147.398 47C147.398 46.2837 147.978 45.7031 148.691 45.7031C149.405 45.7031 149.984 46.2837 149.984 47Z" fill="#DC143C"/>
<path d="M144.812 47C144.812 47.7163 144.233 48.2969 143.52 48.2969C142.806 48.2969 142.227 47.7163 142.227 47C142.227 46.2837 142.806 45.7031 143.52 45.7031C144.233 45.7031 144.812 46.2837 144.812 47Z" fill="#DC143C"/>
<path d="M149.984 52.1875C149.984 52.9038 149.405 53.4844 148.691 53.4844C147.978 53.4844 147.398 52.9038 147.398 52.1875C147.398 51.4712 147.978 50.8906 148.691 50.8906C149.405 50.8906 149.984 51.4712 149.984 52.1875Z" fill="#DC143C"/>
<path d="M159.035 62.5625C159.035 63.2788 158.456 63.8594 157.742 63.8594C157.028 63.8594 156.449 63.2788 156.449 62.5625C156.449 61.8462 157.028 61.2656 157.742 61.2656C158.456 61.2656 159.035 61.8462 159.035 62.5625Z" fill="#DC143C"/>
<path d="M155.156 57.375C155.156 58.0913 154.577 58.6719 153.863 58.6719C153.15 58.6719 152.57 58.0913 152.57 57.375C152.57 56.6587 153.15 56.0781 153.863 56.0781C154.577 56.0781 155.156 56.6587 155.156 57.375Z" fill="#DC143C"/>
<path d="M82.5 120C128.063 120 165 109.031 165 95.5C165 81.969 128.063 71 82.5 71C36.9365 71 0 81.969 0 95.5C0 109.031 36.9365 120 82.5 120Z" fill="#DC143C"/>
<path d="M82.5 130C128.063 130 165 117.24 165 101.5C165 85.7599 128.063 73 82.5 73C36.9365 73 0 85.7599 0 101.5C0 117.24 36.9365 130 82.5 130Z" fill="#E55975"/>
<path d="M179.723 93.0391C179.723 103.424 135.728 111.844 81.457 111.844C27.1865 111.844 -16.8086 103.424 -16.8086 93.0391" stroke="#DC143C" stroke-width="2.5" stroke-linecap="round" stroke-linejoin="round"/>
<path d="M101.498 82.393C95.2362 82.1487 88.4891 82.0156 81.457 82.0156C48.609 82.0156 21.9805 84.9188 21.9805 88.5C21.9805 92.0812 48.609 94.9844 81.457 94.9844C114.305 94.9844 140.934 92.0812 140.934 88.5C140.934 86.2181 130.123 84.2116 113.781 83.056M109.175 82.8074L107.64 82.7245L106.104 82.6416" stroke="#DC143C" stroke-width="2.5" stroke-linecap="round" stroke-linejoin="round"/>
<path d="M53.6582 32.7344C54.0891 31.2214 59.218 27.2875 76.2852 23.6562C79.302 15.0105 91.9301 -0.854688 118.307 4.85156L122.186 0.3125V28.8438C120.031 29.0599 115.333 27.9359 113.781 21.7109C111.842 13.9297 108.609 18.4688 107.316 21.7109C106.282 24.3047 104.73 28.4115 104.084 30.1406L116.367 35.3281C117.876 35.9766 120.505 38.3109 118.953 42.4609L110.549 58.6719H107.316L112.488 40.5156C111.644 40.4945 109.387 40.4911 108.321 40.51L101.498 58.6719H98.2656L102.4 40.7972C92.1095 41.5804 78.7699 44.0713 67.2344 50.2422C66.8351 53.5793 66.3974 58.8783 62.4522 62.199L49.7793 85.9062H45.9004L55.3786 65.1562C54.4358 65.249 52.1394 65.2535 51.0723 65.1562L40.082 85.9062H36.2031L46.5469 56.0781H51.0723C52.1497 56.0781 53.9168 55.3 52.3652 52.1875C50.4258 48.2969 47.8398 46.3516 51.0723 39.8672C49.3484 39.8672 44.3488 39.8672 40.7285 50.2422C39.4355 53.7006 34.1344 59.7094 23.2734 56.0781C26.7214 54.1328 33.7465 48.6859 34.2637 42.4609C34.9102 34.6797 43.9609 30.7891 53.6582 32.7344Z" fill="#232323"/>
<path d="M53.6582 32.7344C54.0577 31.3321 58.4927 27.8501 72.7286 24.4569C74.9261 23.9331 76.6946 22.326 77.7665 20.332C82.4827 11.5582 95.0509 -0.179534 118.307 4.85156L122.186 0.3125V28.8438C120.031 29.0599 115.333 27.9359 113.781 21.7109C111.842 13.9297 108.609 18.4688 107.316 21.7109C106.282 24.3047 104.73 28.4115 104.084 30.1406L116.367 35.3281C117.876 35.9766 120.505 38.3109 118.953 42.4609L110.549 58.6719H107.316L112.488 40.5156C111.644 40.4945 109.387 40.4911 108.321 40.51L101.498 58.6719H98.2656L102.4 40.7972C92.1095 41.5804 78.7699 44.0713 67.2344 50.2422C66.8351 53.5793 66.3974 58.8783 62.4522 62.199L49.7793 85.9062H45.9004L55.3786 65.1562C54.4358 65.249 52.1394 65.2535 51.0723 65.1562L40.082 85.9062H36.2031L46.5469 56.0781H51.0723C52.1497 56.0781 53.9168 55.3 52.3652 52.1875C50.4258 48.2969 47.8398 46.3516 51.0723 39.8672C49.3484 39.8672 44.3488 39.8672 40.7285 50.2422C39.4355 53.7006 34.1344 59.7094 23.2734 56.0781C26.7214 54.1328 33.7465 48.6859 34.2637 42.4609C34.9102 34.6797 43.9609 30.7891 53.6582 32.7344Z" fill="#DC143C"/>
<path d="M83.3965 22.3599C89.5091 14.7138 94.1443 11.3934 102.144 10.0057" stroke="#DC143C" stroke-width="2.5" stroke-linecap="round"/>
<path d="M73.0529 41.812C70.7721 42.536 68.8431 43.1795 66.291 44.4868" stroke="#DC143C" stroke-width="2.5" stroke-linecap="round"/>
</svg>
