<svg width="163" height="150" viewBox="0 0 163 150" fill="none" xmlns="http://www.w3.org/2000/svg">
<path d="M31.8513 82.2104L34.5015 85.2885L3.09782 112.325L0.768555 108.97L31.8513 82.2104Z" fill="url(#paint0_linear_74_899)"/>
<path d="M131.719 82.2104L129.069 85.2885L160.473 112.325L162.802 108.97L131.719 82.2104Z" fill="url(#paint1_linear_74_899)"/>
<path d="M64.0836 0.403992L72.8852 2.77366C78.6491 4.32541 84.7207 4.32541 90.4845 2.77366L99.2861 0.403992L104.702 7.85067L118.241 8.52764L120.949 78.2556L160.213 112.104C154.347 123.839 136.52 147.713 112.149 149.338L102.671 106.688C101.091 99.693 94.6827 85.7023 81.6849 85.7023C68.687 85.7023 62.2784 99.693 60.6988 106.688L51.2212 149.338C26.8502 147.713 9.02328 123.839 3.15625 112.104L42.4206 78.2556L45.1284 8.52764L58.6679 7.85067L64.0836 0.403992Z" fill="#DC143C"/>
<path d="M118.239 8.52765L104.699 7.85068C104.699 18.1795 105.101 42.1374 106.706 55.7137C110.009 64.6048 114.615 72.6085 120.947 78.2556L118.239 8.52765Z" fill="#DC143C"/>
<path d="M58.667 7.85067L64.0827 0.403992C64.8545 13.061 63.8103 36.4664 56.6602 55.7137C58.2648 42.1373 58.667 18.1795 58.667 7.85067Z" fill="#DC143C"/>
<path d="M104.697 7.85067L99.2808 0.403992C98.509 13.061 99.5533 36.4664 106.703 55.7137C105.099 42.1373 104.697 18.1795 104.697 7.85067Z" fill="#DC143C"/>
<path d="M60.6979 106.688L51.2203 149.338C49.8327 149.245 48.4663 149.08 47.1221 148.85L47.1585 148.661C53.6647 117.157 55.4183 78.9317 76.0517 52.7804C78.9165 49.1495 84.327 49.268 87.0734 52.9893C106.893 79.8461 108.952 116.797 115.533 148.661L115.59 148.957C114.458 149.132 113.31 149.26 112.148 149.338L102.67 106.688C101.09 99.693 94.6818 85.7023 81.684 85.7023C68.6862 85.7023 62.2776 99.693 60.6979 106.688Z" fill="#DC143C"/>
<path d="M64.0836 0.403992L81.6849 3.78885L99.2861 0.403992C98.1579 18.9079 100.911 60.3836 120.949 78.2556L160.213 112.104C154.626 123.28 138.19 145.465 115.586 148.957C109.732 116.157 106.893 77.792 85.3596 50.7399C83.4393 48.3276 79.8473 48.2496 77.8382 50.5885C55.0756 77.0875 53.503 116.056 47.1225 148.85C24.8587 145.033 8.68927 123.17 3.15625 112.104L42.4206 78.2556C62.4589 60.3836 65.2119 18.9079 64.0836 0.403992Z" fill="#E65975"/>
<path d="M83.036 57.2695C83.036 58.0173 82.4298 58.6235 81.6821 58.6235C80.9343 58.6235 80.3281 58.0173 80.3281 57.2695C80.3281 56.5217 80.9343 55.9156 81.6821 55.9156C82.4298 55.9156 83.036 56.5217 83.036 57.2695Z" fill="#DC143C"/>
<path d="M79.6503 62.6853C79.6503 63.4331 79.0441 64.0392 78.2963 64.0392C77.5485 64.0392 76.9424 63.4331 76.9424 62.6853C76.9424 61.9375 77.5485 61.3314 78.2963 61.3314C79.0441 61.3314 79.6503 61.9375 79.6503 62.6853Z" fill="#DC143C"/>
<path d="M86.4208 62.6853C86.4208 63.4331 85.8146 64.0392 85.0668 64.0392C84.3191 64.0392 83.7129 63.4331 83.7129 62.6853C83.7129 61.9375 84.3191 61.3314 85.0668 61.3314C85.8146 61.3314 86.4208 61.9375 86.4208 62.6853Z" fill="#DC143C"/>
<path d="M79.6503 73.5168C79.6503 74.2646 79.0441 74.8708 78.2963 74.8708C77.5485 74.8708 76.9424 74.2646 76.9424 73.5168C76.9424 72.7691 77.5485 72.1629 78.2963 72.1629C79.0441 72.1629 79.6503 72.7691 79.6503 73.5168Z" fill="#DC143C"/>
<path d="M86.4208 73.5168C86.4208 74.2646 85.8146 74.8708 85.0668 74.8708C84.3191 74.8708 83.7129 74.2646 83.7129 73.5168C83.7129 72.7691 84.3191 72.1629 85.0668 72.1629C85.8146 72.1629 86.4208 72.7691 86.4208 73.5168Z" fill="#DC143C"/>
<path d="M93.1903 73.5168C93.1903 74.2646 92.5841 74.8708 91.8364 74.8708C91.0886 74.8708 90.4824 74.2646 90.4824 73.5168C90.4824 72.7691 91.0886 72.1629 91.8364 72.1629C92.5841 72.1629 93.1903 72.7691 93.1903 73.5168Z" fill="#DC143C"/>
<path d="M72.8807 73.5168C72.8807 74.2646 72.2746 74.8708 71.5268 74.8708C70.779 74.8708 70.1729 74.2646 70.1729 73.5168C70.1729 72.7691 70.779 72.1629 71.5268 72.1629C72.2746 72.1629 72.8807 72.7691 72.8807 73.5168Z" fill="#DC143C"/>
<path d="M76.2665 68.1011C76.2665 68.8489 75.6603 69.455 74.9125 69.455C74.1648 69.455 73.5586 68.8489 73.5586 68.1011C73.5586 67.3533 74.1648 66.7471 74.9125 66.7471C75.6603 66.7471 76.2665 67.3533 76.2665 68.1011Z" fill="#DC143C"/>
<path d="M83.036 68.1011C83.036 68.8489 82.4298 69.455 81.6821 69.455C80.9343 69.455 80.3281 68.8489 80.3281 68.1011C80.3281 67.3533 80.9343 66.7471 81.6821 66.7471C82.4298 66.7471 83.036 67.3533 83.036 68.1011Z" fill="#DC143C"/>
<path d="M89.8055 68.1011C89.8055 68.8489 89.1994 69.455 88.4516 69.455C87.7038 69.455 87.0977 68.8489 87.0977 68.1011C87.0977 67.3533 87.7038 66.7471 88.4516 66.7471C89.1994 66.7471 89.8055 67.3533 89.8055 68.1011Z" fill="#DC143C"/>
<path d="M76.2665 78.9326C76.2665 79.6804 75.6603 80.2866 74.9125 80.2866C74.1648 80.2866 73.5586 79.6804 73.5586 78.9326C73.5586 78.1848 74.1648 77.5787 74.9125 77.5787C75.6603 77.5787 76.2665 78.1848 76.2665 78.9326Z" fill="#DC143C"/>
<path d="M83.036 78.9326C83.036 79.6804 82.4298 80.2866 81.6821 80.2866C80.9343 80.2866 80.3281 79.6804 80.3281 78.9326C80.3281 78.1848 80.9343 77.5787 81.6821 77.5787C82.4298 77.5787 83.036 78.1848 83.036 78.9326Z" fill="#DC143C"/>
<path d="M89.8055 78.9326C89.8055 79.6804 89.1994 80.2866 88.4516 80.2866C87.7038 80.2866 87.0977 79.6804 87.0977 78.9326C87.0977 78.1848 87.7038 77.5787 88.4516 77.5787C89.1994 77.5787 89.8055 78.1848 89.8055 78.9326Z" fill="#DC143C"/>
<path d="M79.6514 12.3225C79.6514 11.9695 79.6514 11.7929 79.692 11.6307C79.7463 11.4147 79.853 11.2151 80.0029 11.05C80.1152 10.9263 80.262 10.8284 80.5557 10.6326C80.9173 10.3916 81.0981 10.2711 81.2899 10.213C81.5458 10.1355 81.8188 10.1355 82.0747 10.213C82.2665 10.2711 82.4473 10.3916 82.8089 10.6326C83.1026 10.8284 83.2493 10.9263 83.3617 11.05C83.5116 11.2151 83.6183 11.4147 83.6726 11.6307C83.7132 11.7929 83.7132 11.9695 83.7132 12.3225V16.9183C83.7132 17.2713 83.7132 17.4478 83.6726 17.61C83.6183 17.8261 83.5116 18.0257 83.3617 18.1907C83.2493 18.3145 83.1026 18.4124 82.8089 18.6081C82.4473 18.8491 82.2665 18.9696 82.0747 19.0277C81.8188 19.1053 81.5458 19.1053 81.2899 19.0277C81.0981 18.9696 80.9173 18.8491 80.5557 18.6081C80.262 18.4124 80.1152 18.3145 80.0029 18.1907C79.853 18.0257 79.7463 17.8261 79.692 17.61C79.6514 17.4478 79.6514 17.2713 79.6514 16.9183V12.3225Z" fill="#DC143C" stroke="#DC143C" stroke-width="2.70788" stroke-linecap="round" stroke-linejoin="round"/>
<path d="M70.1729 10.9685C70.1729 10.6156 70.1728 10.439 70.2135 10.2768C70.2678 10.0607 70.3745 9.86114 70.5243 9.6961C70.6367 9.57235 70.7835 9.47446 71.0771 9.27868C71.4388 9.03767 71.6195 8.91717 71.8114 8.85909C72.0673 8.78151 72.3402 8.78151 72.5961 8.85909C72.788 8.91717 72.9687 9.03767 73.3304 9.27868C73.624 9.47446 73.7708 9.57235 73.8832 9.6961C74.0331 9.86114 74.1398 10.0607 74.1941 10.2768C74.2347 10.439 74.2347 10.6156 74.2347 10.9685V15.5644C74.2347 15.9173 74.2347 16.0939 74.1941 16.2561C74.1398 16.4722 74.0331 16.6717 73.8832 16.8368C73.7708 16.9605 73.624 17.0584 73.3304 17.2542C72.9687 17.4952 72.788 17.6157 72.5961 17.6738C72.3402 17.7514 72.0673 17.7514 71.8114 17.6738C71.6195 17.6157 71.4388 17.4952 71.0771 17.2542C70.7835 17.0584 70.6367 16.9605 70.5243 16.8368C70.3745 16.6717 70.2678 16.4722 70.2135 16.2561C70.1728 16.0939 70.1729 15.9173 70.1729 15.5644V10.9685Z" fill="#DC143C" stroke="#DC143C" stroke-width="2.70788" stroke-linecap="round" stroke-linejoin="round"/>
<path d="M89.1289 10.9685C89.1289 10.6156 89.1289 10.439 89.1695 10.2768C89.2238 10.0607 89.3305 9.86114 89.4804 9.6961C89.5928 9.57235 89.7395 9.47446 90.0332 9.27868C90.3948 9.03767 90.5756 8.91717 90.7674 8.85909C91.0233 8.78151 91.2963 8.78151 91.5522 8.85909C91.744 8.91717 91.9248 9.03767 92.2864 9.27868C92.5801 9.47446 92.7269 9.57235 92.8393 9.6961C92.9891 9.86114 93.0958 10.0607 93.1501 10.2768C93.1907 10.439 93.1907 10.6156 93.1907 10.9685V15.5644C93.1907 15.9173 93.1907 16.0939 93.1501 16.2561C93.0958 16.4722 92.9891 16.6717 92.8393 16.8368C92.7269 16.9605 92.5801 17.0584 92.2864 17.2542C91.9248 17.4952 91.744 17.6157 91.5522 17.6738C91.2963 17.7514 91.0233 17.7514 90.7674 17.6738C90.5756 17.6157 90.3948 17.4952 90.0332 17.2542C89.7395 17.0584 89.5928 16.9605 89.4804 16.8368C89.3305 16.6717 89.2238 16.4722 89.1695 16.2561C89.1289 16.0939 89.1289 15.9173 89.1289 15.5644V10.9685Z" fill="#DC143C" stroke="#DC143C" stroke-width="2.70788" stroke-linecap="round" stroke-linejoin="round"/>
<path d="M51.8979 8.52765L50.5439 43.7301" stroke="#DC143C" stroke-width="2.70788" stroke-linecap="round"/>
<path d="M35.6508 95.1799L12.6338 118.197" stroke="#DC143C" stroke-width="2.70788" stroke-linecap="round" stroke-linejoin="round"/>
<path d="M114.891 104.974C114.716 104.247 115.164 103.516 115.891 103.341C116.618 103.166 117.349 103.614 117.524 104.341L114.891 104.974ZM126.325 140.897C126.5 141.624 126.052 142.355 125.325 142.53C124.598 142.705 123.867 142.258 123.692 141.531L126.325 140.897ZM117.524 104.341L126.325 140.897L123.692 141.531L114.891 104.974L117.524 104.341Z" fill="#DC143C"/>
<path d="M122.3 91.1181L131.777 100.596" stroke="#DC143C" stroke-width="2.70788" stroke-linecap="round" stroke-linejoin="round"/>
<path d="M135.84 104.658L138.548 107.365" stroke="#DC143C" stroke-width="2.70788" stroke-linecap="round" stroke-linejoin="round"/>
<path d="M34.2964 114.135L23.4648 129.028" stroke="#DC143C" stroke-width="2.70788" stroke-linecap="round" stroke-linejoin="round"/>
<path d="M111.469 8.52765L112.146 30.1907" stroke="#DC143C" stroke-width="2.70788" stroke-linecap="round"/>
<defs>
<linearGradient id="paint0_linear_74_899" x1="33.1764" y1="83.7495" x2="1.77277" y2="110.786" gradientUnits="userSpaceOnUse">
<stop stop-color="#F5FBF5"/>
<stop offset="1" stop-color="white"/>
</linearGradient>
<linearGradient id="paint1_linear_74_899" x1="130.394" y1="83.7495" x2="161.799" y2="110.786" gradientUnits="userSpaceOnUse">
<stop stop-color="#F5FBF5"/>
<stop offset="1" stop-color="white"/>
</linearGradient>
</defs>
</svg>
