<svg width="32" height="33" viewBox="0 0 32 33" fill="none" xmlns="http://www.w3.org/2000/svg">
<path d="M24.1078 15.6004V14.8582C24.1078 14.7471 24.1078 14.6916 24.1072 14.6446C24.0563 11.0947 21.1909 8.22927 17.641 8.17843C17.594 8.17775 17.5385 8.17775 17.4274 8.17775H16.6851M28.7472 16.5283V15.2293C28.7472 14.121 28.7472 13.5669 28.7053 13.0997C28.2525 8.04178 24.244 4.03325 19.186 3.5804C18.7189 3.53857 18.1647 3.53857 17.0564 3.53857L15.7575 3.53857M11.5294 13.0168C10.9346 14.3812 11.2356 15.9705 12.288 17.0229L15.433 20.1679C16.4855 21.2203 18.0748 21.5213 19.4392 20.9266C20.8035 20.3319 22.3929 20.6329 23.4453 21.6853L25.3587 23.5987C25.4514 23.6914 25.4977 23.7377 25.5352 23.7786C26.4578 24.7826 26.4578 26.3258 25.5352 27.3298C25.4977 27.3706 25.4514 27.417 25.3587 27.5097L24.1956 28.6727C23.2485 29.6198 21.8832 30.0174 20.5757 29.7269C11.6666 27.7471 4.70889 20.7893 2.7291 11.8803C2.43854 10.5728 2.83613 9.20743 3.78324 8.26033L4.94626 7.09731C5.03896 7.00461 5.08531 6.95826 5.12614 6.92074C6.13015 5.99819 7.67339 5.99819 8.6774 6.92074C8.71823 6.95826 8.76458 7.00461 8.85728 7.09731L10.7707 9.01069C11.8231 10.0631 12.1241 11.6524 11.5294 13.0168Z" stroke="#232323" stroke-width="1.96824" stroke-linecap="round"/>
</svg>
