<svg width="25" height="25" viewBox="0 0 29 29" fill="none" xmlns="http://www.w3.org/2000/svg">
<path d="M22.5541 13.6002V12.8579C22.5541 12.7469 22.5541 12.6913 22.5534 12.6443C22.5026 9.09445 19.6372 6.22902 16.0873 6.17818C16.0403 6.17751 15.9848 6.17751 15.8737 6.17751H15.1314M27.1934 14.528V13.2291C27.1934 12.1208 27.1934 11.5666 27.1516 11.0995C26.6988 6.04154 22.6902 2.033 17.6323 1.58015C17.1652 1.53833 16.611 1.53833 15.5027 1.53833L14.2037 1.53833M9.97564 11.0166C9.38092 12.3809 9.68191 13.9703 10.7343 15.0227L13.8793 18.1677C14.9317 19.2201 16.5211 19.5211 17.8854 18.9264C19.2498 18.3316 20.8391 18.6326 21.8916 19.6851L23.8049 21.5984C23.8976 21.6911 23.944 21.7375 23.9815 21.7783C24.9041 22.7823 24.9041 24.3256 23.9815 25.3296C23.944 25.3704 23.8976 25.4168 23.8049 25.5095L22.6419 26.6725C21.6948 27.6196 20.3295 28.0172 19.022 27.7266C10.1129 25.7468 3.15518 18.7891 1.17539 9.88005C0.884833 8.57253 1.28242 7.20719 2.22953 6.26008L3.39255 5.09706C3.48525 5.00436 3.5316 4.95801 3.57243 4.92049C4.57644 3.99794 6.11968 3.99794 7.12369 4.92049C7.16452 4.95801 7.21087 5.00436 7.30357 5.09706L9.21695 7.01044C10.2694 8.06286 10.5704 9.6522 9.97564 11.0166Z" stroke="#DC143C" stroke-width="1.96824" stroke-linecap="round"/>
</svg>
