<svg width="69" height="60" viewBox="0 0 79 75" fill="none" xmlns="http://www.w3.org/2000/svg">
<path d="M66.4877 11.5246C65.7129 9.28861 63.5433 7.6969 60.9864 7.6969H18.3702C15.8133 7.6969 13.6825 9.28861 12.8689 11.5246L4.9434 33.8511C4.85548 34.0988 4.81055 34.3597 4.81055 34.6225V64.5436C4.81055 66.628 6.55393 68.3334 8.68474 68.3334H12.5589C14.6897 68.3334 16.4331 66.628 16.4331 64.5436V63.0597C16.4331 61.7862 17.4655 60.7538 18.739 60.7538H60.6176C61.8911 60.7538 62.9235 61.7862 62.9235 63.0597V64.5436C62.9235 66.628 64.6668 68.3334 66.7977 68.3334H70.6718C72.8027 68.3334 74.546 66.628 74.546 64.5436V34.6225C74.546 34.3597 74.5011 34.0988 74.4132 33.8511L66.4877 11.5246ZM19.1815 16.8109C19.508 15.8911 20.3784 15.2765 21.3545 15.2765H57.9634C58.9395 15.2765 59.8098 15.8911 60.1364 16.8109L62.6833 23.9853C63.2162 25.4863 62.103 27.0627 60.5103 27.0627H18.8075C17.2148 27.0627 16.1017 25.4863 16.6345 23.9853L19.1815 16.8109ZM66.7977 50.8684C66.7977 52.1419 65.7653 53.1742 64.4918 53.1742H14.8648C13.5913 53.1742 12.5589 52.1419 12.5589 50.8683V36.5312C12.5589 35.2577 13.5913 34.2253 14.8648 34.2253H64.4918C65.7653 34.2253 66.7977 35.2577 66.7977 36.5312V50.8684Z" fill="#DC143C"/>
<path d="M24.0447 44.4202C27.2542 44.4202 29.856 41.8751 29.856 38.7356C29.856 35.596 27.2542 33.0509 24.0447 33.0509C20.8352 33.0509 18.2334 35.596 18.2334 38.7356C18.2334 41.8751 20.8352 44.4202 24.0447 44.4202Z" fill="#DC143C"/>
<path d="M58.9119 44.4202C62.1214 44.4202 64.7232 41.8751 64.7232 38.7356C64.7232 35.596 62.1214 33.0509 58.9119 33.0509C55.7024 33.0509 53.1006 35.596 53.1006 38.7356C53.1006 41.8751 55.7024 44.4202 58.9119 44.4202Z" fill="#DC143C"/>
</svg>
