<svg width="40" height="39" viewBox="0 0 40 39" fill="none" xmlns="http://www.w3.org/2000/svg">
<rect x="0.209961" y="0.000488281" width="38.9996" height="38.9996" rx="7.79992" fill="#DC143C"/>
<g clip-path="url(#clip0_74_1160)">
<path d="M19.7101 8.62854C23.2529 8.62854 23.6725 8.64407 25.0658 8.70623C26.3607 8.76321 27.06 8.98075 27.5261 9.16204C28.1425 9.4003 28.588 9.69036 29.049 10.1513C29.5151 10.6175 29.8 11.0578 30.0383 11.6742C30.2196 12.1403 30.4371 12.8448 30.4941 14.1345C30.5562 15.533 30.5718 15.9525 30.5718 19.4902C30.5718 23.0331 30.5562 23.4527 30.4941 24.846C30.4371 26.1409 30.2196 26.8401 30.0383 27.3063C29.8 27.9227 29.5099 28.3681 29.049 28.8291C28.5828 29.2953 28.1425 29.5802 27.5261 29.8184C27.06 29.9997 26.3555 30.2173 25.0658 30.2742C23.6673 30.3364 23.2478 30.3519 19.7101 30.3519C16.1672 30.3519 15.7476 30.3364 14.3543 30.2742C13.0594 30.2173 12.3602 29.9997 11.894 29.8184C11.2776 29.5802 10.8322 29.2901 10.3712 28.8291C9.90501 28.363 9.62013 27.9227 9.38187 27.3063C9.20058 26.8401 8.98304 26.1357 8.92606 24.846C8.86391 23.4475 8.84837 23.0279 8.84837 19.4902C8.84837 15.9474 8.86391 15.5278 8.92606 14.1345C8.98304 12.8396 9.20058 12.1403 9.38187 11.6742C9.62013 11.0578 9.91019 10.6123 10.3712 10.1513C10.8373 9.68518 11.2776 9.4003 11.894 9.16204C12.3602 8.98075 13.0646 8.76321 14.3543 8.70623C15.7476 8.64407 16.1672 8.62854 19.7101 8.62854ZM19.7101 6.24072C16.1102 6.24072 15.6596 6.25626 14.2456 6.31842C12.8367 6.38057 11.8681 6.60848 11.029 6.93479C10.1536 7.27665 9.41295 7.72728 8.67744 8.46797C7.93675 9.20348 7.48612 9.94416 7.14427 10.8143C6.81795 11.6586 6.59005 12.622 6.52789 14.0309C6.46573 15.4501 6.4502 15.9007 6.4502 19.5006C6.4502 23.1004 6.46573 23.5511 6.52789 24.9651C6.59005 26.374 6.81795 27.3426 7.14427 28.1817C7.48612 29.057 7.93675 29.7977 8.67744 30.5332C9.41295 31.2687 10.1536 31.7245 11.0238 32.0612C11.8681 32.3875 12.8315 32.6154 14.2404 32.6776C15.6544 32.7397 16.105 32.7553 19.7049 32.7553C23.3047 32.7553 23.7554 32.7397 25.1694 32.6776C26.5783 32.6154 27.5469 32.3875 28.386 32.0612C29.2561 31.7245 29.9968 31.2687 30.7323 30.5332C31.4678 29.7977 31.9237 29.057 32.2603 28.1868C32.5866 27.3426 32.8146 26.3792 32.8767 24.9703C32.9389 23.5563 32.9544 23.1056 32.9544 19.5058C32.9544 15.9059 32.9389 15.4553 32.8767 14.0413C32.8146 12.6324 32.5866 11.6638 32.2603 10.8247C31.934 9.94416 31.4834 9.20348 30.7427 8.46797C30.0072 7.73246 29.2665 7.27665 28.3963 6.93997C27.552 6.61366 26.5886 6.38575 25.1798 6.3236C23.7605 6.25626 23.3099 6.24072 19.7101 6.24072Z" fill="white"/>
<path d="M19.7097 12.6895C15.9492 12.6895 12.8984 15.7403 12.8984 19.5007C12.8984 23.2611 15.9492 26.3119 19.7097 26.3119C23.4701 26.3119 26.5209 23.2611 26.5209 19.5007C26.5209 15.7403 23.4701 12.6895 19.7097 12.6895ZM19.7097 23.9189C17.2701 23.9189 15.2914 21.9403 15.2914 19.5007C15.2914 17.0611 17.2701 15.0824 19.7097 15.0824C22.1493 15.0824 24.1279 17.0611 24.1279 19.5007C24.1279 21.9403 22.1493 23.9189 19.7097 23.9189Z" fill="white"/>
<path d="M28.3805 12.42C28.3805 13.3005 27.6657 14.0101 26.7903 14.0101C25.9098 14.0101 25.2002 13.2953 25.2002 12.42C25.2002 11.5394 25.915 10.8298 26.7903 10.8298C27.6657 10.8298 28.3805 11.5446 28.3805 12.42Z" fill="white"/>
</g>
<defs>
<clipPath id="clip0_74_1160">
<rect width="26.5197" height="26.5197" fill="white" transform="translate(6.4502 6.24072)"/>
</clipPath>
</defs>
</svg>
