<svg width="165" height="166" viewBox="0 0 166 166" fill="none" xmlns="http://www.w3.org/2000/svg">
<g clip-path="url(#clip0_74_780)">
<path d="M160.328 75C160.328 75.7163 159.749 76.2969 159.035 76.2969C158.321 76.2969 157.742 75.7163 157.742 75C157.742 74.2837 158.321 73.7031 159.035 73.7031C159.749 73.7031 160.328 74.2837 160.328 75Z" fill="#DC143C"/>
<path d="M155.156 75C155.156 75.7163 154.577 76.2969 153.863 76.2969C153.15 76.2969 152.57 75.7163 152.57 75C152.57 74.2837 153.15 73.7031 153.863 73.7031C154.577 73.7031 155.156 74.2837 155.156 75Z" fill="#DC143C"/>
<path d="M160.328 80.1875C160.328 80.9038 159.749 81.4844 159.035 81.4844C158.321 81.4844 157.742 80.9038 157.742 80.1875C157.742 79.4712 158.321 78.8906 159.035 78.8906C159.749 78.8906 160.328 79.4712 160.328 80.1875Z" fill="#DC143C"/>
<path d="M160.328 85.375C160.328 86.0913 159.749 86.6719 159.035 86.6719C158.321 86.6719 157.742 86.0913 157.742 85.375C157.742 84.6587 158.321 84.0781 159.035 84.0781C159.749 84.0781 160.328 84.6587 160.328 85.375Z" fill="#DC143C"/>
<path d="M155.156 80.1875C155.156 80.9038 154.577 81.4844 153.863 81.4844C153.15 81.4844 152.57 80.9038 152.57 80.1875C152.57 79.4712 153.15 78.8906 153.863 78.8906C154.577 78.8906 155.156 79.4712 155.156 80.1875Z" fill="#DC143C"/>
<path d="M149.984 75C149.984 75.7163 149.405 76.2969 148.691 76.2969C147.978 76.2969 147.398 75.7163 147.398 75C147.398 74.2837 147.978 73.7031 148.691 73.7031C149.405 73.7031 149.984 74.2837 149.984 75Z" fill="#DC143C"/>
<path d="M144.812 75C144.812 75.7163 144.233 76.2969 143.52 76.2969C142.806 76.2969 142.227 75.7163 142.227 75C142.227 74.2837 142.806 73.7031 143.52 73.7031C144.233 73.7031 144.812 74.2837 144.812 75Z" fill="#DC143C"/>
<path d="M149.984 80.1875C149.984 80.9038 149.405 81.4844 148.691 81.4844C147.978 81.4844 147.398 80.9038 147.398 80.1875C147.398 79.4712 147.978 78.8906 148.691 78.8906C149.405 78.8906 149.984 79.4712 149.984 80.1875Z" fill="#DC143C"/>
<path d="M159.035 90.5625C159.035 91.2788 158.456 91.8594 157.742 91.8594C157.028 91.8594 156.449 91.2788 156.449 90.5625C156.449 89.8462 157.028 89.2656 157.742 89.2656C158.456 89.2656 159.035 89.8462 159.035 90.5625Z" fill="#DC143C"/>
<path d="M155.156 85.375C155.156 86.0913 154.577 86.6719 153.863 86.6719C153.15 86.6719 152.57 86.0913 152.57 85.375C152.57 84.6587 153.15 84.0781 153.863 84.0781C154.577 84.0781 155.156 84.6587 155.156 85.375Z" fill="#DC143C"/>
<path d="M82.5 148C128.063 148 165 137.031 165 123.5C165 109.969 128.063 99 82.5 99C36.9365 99 0 109.969 0 123.5C0 137.031 36.9365 148 82.5 148Z" fill="#DC143C"/>
<path d="M82.5 158C128.063 158 165 145.24 165 129.5C165 113.76 128.063 101 82.5 101C36.9365 101 0 113.76 0 129.5C0 145.24 36.9365 158 82.5 158Z" fill="#E55975"/>
<path d="M179.723 121.039C179.723 131.424 135.728 139.844 81.457 139.844C27.1865 139.844 -16.8086 131.424 -16.8086 121.039" stroke="#DC143C" stroke-width="2.5" stroke-linecap="round" stroke-linejoin="round"/>
<path d="M101.498 110.393C95.2362 110.149 88.4891 110.016 81.457 110.016C48.609 110.016 21.9805 112.919 21.9805 116.5C21.9805 120.081 48.609 122.984 81.457 122.984C114.305 122.984 140.934 120.081 140.934 116.5C140.934 114.218 130.123 112.212 113.781 111.056M109.175 110.807L107.64 110.724L106.104 110.642" stroke="#DC143C" stroke-width="2.5" stroke-linecap="round" stroke-linejoin="round"/>
<path d="M53.6582 60.7344C54.0891 59.2214 59.218 55.2875 76.2852 51.6562C79.302 43.0105 91.9301 27.1453 118.307 32.8516L122.186 28.3125V56.8438C120.031 57.0599 115.333 55.9359 113.781 49.7109C111.842 41.9297 108.609 46.4688 107.316 49.7109C106.282 52.3047 104.73 56.4115 104.084 58.1406L116.367 63.3281C117.876 63.9766 120.505 66.3109 118.953 70.4609L110.549 86.6719H107.316L112.488 68.5156C111.644 68.4945 109.387 68.4911 108.321 68.51L101.498 86.6719H98.2656L102.4 68.7972C92.1095 69.5804 78.7699 72.0713 67.2344 78.2422C66.8351 81.5793 66.3974 86.8783 62.4522 90.199L49.7793 113.906H45.9004L55.3786 93.1562C54.4358 93.249 52.1394 93.2535 51.0723 93.1562L40.082 113.906H36.2031L46.5469 84.0781H51.0723C52.1497 84.0781 53.9168 83.3 52.3652 80.1875C50.4258 76.2969 47.8398 74.3516 51.0723 67.8672C49.3484 67.8672 44.3488 67.8672 40.7285 78.2422C39.4355 81.7006 34.1344 87.7094 23.2734 84.0781C26.7214 82.1328 33.7465 76.6859 34.2637 70.4609C34.9102 62.6797 43.9609 58.7891 53.6582 60.7344Z" fill="#232323"/>
<path d="M53.6582 60.7344C54.0577 59.3321 58.4927 55.8501 72.7286 52.4569C74.9261 51.9331 76.6946 50.326 77.7665 48.332C82.4827 39.5582 95.0509 27.8205 118.307 32.8516L122.186 28.3125V56.8438C120.031 57.0599 115.333 55.9359 113.781 49.7109C111.842 41.9297 108.609 46.4688 107.316 49.7109C106.282 52.3047 104.73 56.4115 104.084 58.1406L116.367 63.3281C117.876 63.9766 120.505 66.3109 118.953 70.4609L110.549 86.6719H107.316L112.488 68.5156C111.644 68.4945 109.387 68.4911 108.321 68.51L101.498 86.6719H98.2656L102.4 68.7972C92.1095 69.5804 78.7699 72.0713 67.2344 78.2422C66.8351 81.5793 66.3974 86.8783 62.4522 90.199L49.7793 113.906H45.9004L55.3786 93.1562C54.4358 93.249 52.1394 93.2535 51.0723 93.1562L40.082 113.906H36.2031L46.5469 84.0781H51.0723C52.1497 84.0781 53.9168 83.3 52.3652 80.1875C50.4258 76.2969 47.8398 74.3516 51.0723 67.8672C49.3484 67.8672 44.3488 67.8672 40.7285 78.2422C39.4355 81.7006 34.1344 87.7094 23.2734 84.0781C26.7214 82.1328 33.7465 76.6859 34.2637 70.4609C34.9102 62.6797 43.9609 58.7891 53.6582 60.7344Z" fill="#DC143C"/>
<path d="M83.3965 50.3599C89.5091 42.7138 94.1443 39.3934 102.144 38.0057" stroke="#DC143C" stroke-width="2.5" stroke-linecap="round"/>
<path d="M73.0529 69.812C70.7721 70.536 68.8431 71.1795 66.291 72.4868" stroke="#DC143C" stroke-width="2.5" stroke-linecap="round"/>
</g>
<defs>
<clipPath id="clip0_74_780">
<rect width="165.5" height="166" fill="white"/>
</clipPath>
</defs>
</svg>
