<svg width="27" height="25" viewBox="0 0 27 25" fill="none" xmlns="http://www.w3.org/2000/svg">
<path d="M2.11616 4.43066C1.36523 6.02072 1.36523 8.29095 1.36523 12.2749C1.36523 16.9057 1.36523 19.2211 2.54453 20.8443C2.92539 21.3685 3.38639 21.8295 3.9106 22.2104C5.53376 23.3897 7.84917 23.3897 12.48 23.3897H14.9499C19.5807 23.3897 21.8962 23.3897 23.5193 22.2104C24.0435 21.8295 24.5045 21.3685 24.8854 20.8443C26.0647 19.2211 26.0647 16.9057 26.0647 12.2749C26.0647 8.26279 26.0647 5.98872 25.2977 4.39705M2.11616 4.43066C2.23808 4.1725 2.3798 3.93226 2.54453 3.70553C2.92539 3.18131 3.38639 2.72031 3.9106 2.33945C5.53376 1.16016 7.84917 1.16016 12.48 1.16016H14.9499C19.5807 1.16016 21.8962 1.16016 23.5193 2.33945C24.0435 2.72031 24.5045 3.18131 24.8854 3.70553C25.043 3.92239 25.1795 4.15161 25.2977 4.39705M2.11616 4.43066L2.60021 4.86507L4.98239 7.24725C9.09896 11.3638 11.1572 13.4221 13.715 13.4221C16.2727 13.4221 18.331 11.3638 22.4475 7.24726L24.8297 4.86507L25.2977 4.39705" stroke="#232323" stroke-width="1.85246"/>
</svg>
