<svg width="31" height="31" viewBox="0 0 31 31" fill="none" xmlns="http://www.w3.org/2000/svg">
<path d="M4.11616 7.43066C3.36523 9.02072 3.36523 11.2909 3.36523 15.2749C3.36523 19.9057 3.36523 22.2211 4.54453 23.8443C4.92539 24.3685 5.38639 24.8295 5.9106 25.2104C7.53376 26.3897 9.84917 26.3897 14.48 26.3897H16.9499C21.5807 26.3897 23.8962 26.3897 25.5193 25.2104C26.0435 24.8295 26.5045 24.3685 26.8854 23.8443C28.0647 22.2211 28.0647 19.9057 28.0647 15.2749C28.0647 11.2628 28.0647 8.98872 27.2977 7.39705M4.11616 7.43066C4.23808 7.1725 4.3798 6.93226 4.54453 6.70553C4.92539 6.18131 5.38639 5.72031 5.9106 5.33945C7.53376 4.16016 9.84917 4.16016 14.48 4.16016H16.9499C21.5807 4.16016 23.8962 4.16016 25.5193 5.33945C26.0435 5.72031 26.5045 6.18131 26.8854 6.70553C27.043 6.92239 27.1795 7.15161 27.2977 7.39705M4.11616 7.43066L4.60021 7.86507L6.98239 10.2473C11.099 14.3638 13.1572 16.4221 15.715 16.4221C18.2727 16.4221 20.331 14.3638 24.4475 10.2473L26.8297 7.86507L27.2977 7.39705" stroke="#232323" stroke-width="1.85246"/>
</svg>
