<svg width="184" height="72" viewBox="0 0 187 75" fill="none" xmlns="http://www.w3.org/2000/svg">
<path d="M1 73.4244C31.0608 64.066 63.2772 49.7747 79.2013 20.7367C81.6845 16.2086 85.9817 4.4968 78.7484 1.71478C72.4007 -0.726669 60.8098 3.43125 57.3865 8.96122C48.4766 23.3542 41.6552 44.4748 63.4252 51.0057C87.1249 58.1156 118.785 52.3723 142.306 46.2502C153.715 43.2808 167.215 38.8045 177.33 32.6631C184.045 28.5863 177.491 29.9457 172.499 29.9457C165.4 29.9457 149.007 29.9457 164.725 29.9457C171.111 29.9457 178.092 28.9409 183.822 27.3038C189.948 25.5536 180.665 32.7608 179.746 34.0973C176.849 38.3108 173.556 45.1241 173.556 50.3264" stroke="#DC143C" stroke-width="2" stroke-linecap="round"/>
</svg>
