<svg width="40" height="39" viewBox="0 0 40 39" fill="none" xmlns="http://www.w3.org/2000/svg">
<rect x="0.610352" width="38.9996" height="38.9996" rx="7.79992" fill="#DC143C"/>
<g clip-path="url(#clip0_74_1163)">
<path fill-rule="evenodd" clip-rule="evenodd" d="M33.3703 19.5001C33.3703 26.8233 27.4337 32.76 20.1105 32.76C12.7872 32.76 6.85059 26.8233 6.85059 19.5001C6.85059 12.1769 12.7872 6.24023 20.1105 6.24023C27.4337 6.24023 33.3703 12.1769 33.3703 19.5001ZM20.5855 16.0293C19.2958 16.5657 16.7182 17.676 12.8527 19.3602C12.225 19.6098 11.8961 19.854 11.8662 20.0928C11.8156 20.4963 12.321 20.6552 13.0091 20.8716C13.1027 20.901 13.1997 20.9315 13.2991 20.9638C13.9761 21.1839 14.8869 21.4414 15.3603 21.4516C15.7898 21.4609 16.2691 21.2838 16.7983 20.9204C20.41 18.4825 22.2743 17.2502 22.3914 17.2236C22.474 17.2049 22.5884 17.1813 22.6659 17.2502C22.7435 17.3191 22.7358 17.4496 22.7276 17.4847C22.6776 17.6981 20.6939 19.5423 19.6674 20.4966C19.3474 20.7941 19.1204 21.0052 19.0739 21.0534C18.97 21.1613 18.8641 21.2635 18.7622 21.3616C18.1333 21.968 17.6616 22.4226 18.7883 23.1652C19.3298 23.522 19.7631 23.8171 20.1954 24.1114C20.6674 24.4329 21.1383 24.7536 21.7475 25.1529C21.9027 25.2546 22.051 25.3603 22.1953 25.4633C22.7447 25.8549 23.2383 26.2068 23.8481 26.1507C24.2024 26.1181 24.5684 25.7849 24.7543 24.7912C25.1935 22.4429 26.057 17.3548 26.2565 15.2581C26.274 15.0744 26.252 14.8393 26.2344 14.7361C26.2167 14.6329 26.1798 14.4858 26.0456 14.377C25.8868 14.2481 25.6415 14.2209 25.5318 14.2228C25.0331 14.2316 24.2679 14.4977 20.5855 16.0293Z" fill="white"/>
</g>
<defs>
<clipPath id="clip0_74_1163">
<rect width="26.5197" height="26.5197" fill="white" transform="translate(6.85059 6.24023)"/>
</clipPath>
</defs>
</svg>
