<svg width="22" height="24" viewBox="0 0 22 24" fill="none" xmlns="http://www.w3.org/2000/svg">
<path d="M0.75 19C0.75 19.9844 0.868706 20.6776 1.11868 21.1889C1.35477 21.6718 1.73865 22.0546 2.41341 22.3613C3.11269 22.6791 4.11005 22.9076 5.53508 23.0516C6.95291 23.1948 8.7428 23.25 11 23.25C13.2572 23.25 15.0471 23.1948 16.4649 23.0516C17.8899 22.9076 18.8873 22.6791 19.5866 22.3613C20.2614 22.0546 20.6452 21.6718 20.8813 21.1889C21.1313 20.6776 21.25 19.9844 21.25 19C21.25 18.0156 21.1313 17.3224 20.8813 16.8111C20.6452 16.3282 20.2614 15.9454 19.5866 15.6387C18.8873 15.3209 17.8899 15.0924 16.4649 14.9484C15.0471 14.8052 13.2572 14.75 11 14.75C8.7428 14.75 6.95291 14.8052 5.53508 14.9484C4.11005 15.0924 3.11269 15.3209 2.41341 15.6387C1.73865 15.9454 1.35477 16.3282 1.11868 16.8111C0.868706 17.3224 0.75 18.0156 0.75 19Z" stroke="white" stroke-width="1.5" stroke-linecap="round" stroke-linejoin="round"/>
<circle r="5.25" transform="matrix(-1 0 0 1 11 6)" stroke="white" stroke-width="1.5"/>
</svg>
