<svg width="71" height="62" viewBox="0 0 71 62" fill="none" xmlns="http://www.w3.org/2000/svg">
<path d="M62.4877 4.52458C61.7129 2.28861 59.5433 0.696899 56.9864 0.696899H14.3702C11.8133 0.696899 9.68245 2.28861 8.86887 4.52458L0.943399 26.8511C0.855478 27.0988 0.810547 27.3597 0.810547 27.6225V57.5436C0.810547 59.628 2.55393 61.3334 4.68474 61.3334H8.55894C10.6897 61.3334 12.4331 59.628 12.4331 57.5436V56.0597C12.4331 54.7862 13.4655 53.7538 14.739 53.7538H56.6176C57.8911 53.7538 58.9235 54.7862 58.9235 56.0597V57.5436C58.9235 59.628 60.6668 61.3334 62.7977 61.3334H66.6718C68.8027 61.3334 70.546 59.628 70.546 57.5436V27.6225C70.546 27.3597 70.5011 27.0988 70.4132 26.8511L62.4877 4.52458ZM15.1815 9.81092C15.508 8.89106 16.3784 8.27646 17.3545 8.27646H53.9634C54.9395 8.27646 55.8098 8.89106 56.1364 9.81092L58.6833 16.9853C59.2162 18.4863 58.103 20.0627 56.5103 20.0627H14.8075C13.2148 20.0627 12.1017 18.4863 12.6345 16.9853L15.1815 9.81092ZM62.7977 43.8684C62.7977 45.1419 61.7653 46.1742 60.4918 46.1742H10.8648C9.59132 46.1742 8.55894 45.1419 8.55894 43.8683V29.5312C8.55894 28.2577 9.59132 27.2253 10.8648 27.2253H60.4918C61.7653 27.2253 62.7977 28.2577 62.7977 29.5312V43.8684Z" fill="#DC143C"/>
</svg>
