<svg width="39" height="39" viewBox="0 0 40 39" fill="none" xmlns="http://www.w3.org/2000/svg">
<rect x="0.0107422" y="0.000244141" width="38.9996" height="38.9996" rx="7.79992" fill="#DC143C"/>
<g clip-path="url(#clip0_74_1166)">
<mask id="path-2-inside-1_74_1166" fill="white">
<path d="M19.732 6.24023C12.542 6.24023 6.6931 12.0892 6.6931 19.2791C6.6931 21.5536 7.28803 23.7883 8.41512 25.7543L6.27365 32.1783C6.22238 32.3326 6.2595 32.5018 6.37045 32.6203C6.45531 32.7109 6.57288 32.76 6.6931 32.76C6.73067 32.76 6.76824 32.7551 6.80537 32.7454L13.8185 30.9001C15.6404 31.8282 17.6811 32.318 19.732 32.318C26.9219 32.318 32.7709 26.4691 32.7709 19.2791C32.7709 12.0892 26.9219 6.24023 19.732 6.24023ZM19.732 31.434C18.1991 31.434 16.6738 31.137 15.2537 30.5743L17.3969 30.0974C17.6351 30.0444 17.7854 29.8083 17.7324 29.5701C17.6793 29.3314 17.4438 29.1829 17.2051 29.2342L13.7752 29.9975C13.7721 29.9984 13.7699 30.0006 13.7668 30.001C13.7642 30.0019 13.7615 30.001 13.7588 30.0015L7.37068 31.6828L9.31679 25.8445C9.35745 25.723 9.34287 25.5895 9.27745 25.479C8.16495 23.6067 7.57709 21.463 7.57709 19.2791C7.57709 12.5771 13.0296 7.12423 19.732 7.12423C26.4344 7.12423 31.8869 12.5771 31.8869 19.2791C31.8869 25.9811 26.4344 31.434 19.732 31.434Z"/>
</mask>
<path d="M19.732 6.24023C12.542 6.24023 6.6931 12.0892 6.6931 19.2791C6.6931 21.5536 7.28803 23.7883 8.41512 25.7543L6.27365 32.1783C6.22238 32.3326 6.2595 32.5018 6.37045 32.6203C6.45531 32.7109 6.57288 32.76 6.6931 32.76C6.73067 32.76 6.76824 32.7551 6.80537 32.7454L13.8185 30.9001C15.6404 31.8282 17.6811 32.318 19.732 32.318C26.9219 32.318 32.7709 26.4691 32.7709 19.2791C32.7709 12.0892 26.9219 6.24023 19.732 6.24023ZM19.732 31.434C18.1991 31.434 16.6738 31.137 15.2537 30.5743L17.3969 30.0974C17.6351 30.0444 17.7854 29.8083 17.7324 29.5701C17.6793 29.3314 17.4438 29.1829 17.2051 29.2342L13.7752 29.9975C13.7721 29.9984 13.7699 30.0006 13.7668 30.001C13.7642 30.0019 13.7615 30.001 13.7588 30.0015L7.37068 31.6828L9.31679 25.8445C9.35745 25.723 9.34287 25.5895 9.27745 25.479C8.16495 23.6067 7.57709 21.463 7.57709 19.2791C7.57709 12.5771 13.0296 7.12423 19.732 7.12423C26.4344 7.12423 31.8869 12.5771 31.8869 19.2791C31.8869 25.9811 26.4344 31.434 19.732 31.434Z" fill="white"/>
<path d="M8.41512 25.7543L14.6039 27.8174L15.5281 25.0451L14.0746 22.5098L8.41512 25.7543ZM6.27365 32.1783L0.0848851 30.1152L0.0830731 30.1207L6.27365 32.1783ZM6.37045 32.6203L1.60904 37.0797L1.60909 37.0797L6.37045 32.6203ZM6.80537 32.7454L8.45818 39.0561L8.46538 39.0542L6.80537 32.7454ZM13.8185 30.9001L16.7799 25.0874L14.5638 23.9583L12.1585 24.5912L13.8185 30.9001ZM15.2537 30.5743L13.8367 24.2065L-6.88883 28.8183L12.8507 36.6392L15.2537 30.5743ZM17.3969 30.0974L18.8139 36.4652L18.8146 36.4651L17.3969 30.0974ZM17.7324 29.5701L11.3642 30.9853L11.3647 30.9878L17.7324 29.5701ZM17.2051 29.2342L15.835 22.8561L15.8114 22.8612L15.7879 22.8664L17.2051 29.2342ZM13.7752 29.9975L12.358 23.6297L12.1691 23.6718L11.983 23.7249L13.7752 29.9975ZM13.7668 30.001L12.8442 23.543L12.2619 23.6262L11.7039 23.8122L13.7668 30.001ZM13.7588 30.0015L12.6864 23.5667L12.3895 23.6161L12.0984 23.6928L13.7588 30.0015ZM7.37068 31.6828L1.18188 29.6199L-2.6319 41.0612L9.03112 37.9916L7.37068 31.6828ZM9.31679 25.8445L3.13023 23.7748L3.12799 23.7816L9.31679 25.8445ZM9.27745 25.479L14.8911 22.1557L14.8857 22.1466L9.27745 25.479ZM19.732 -0.283338C8.93916 -0.283338 0.16953 8.48629 0.16953 19.2791H13.2167C13.2167 15.692 16.1449 12.7638 19.732 12.7638V-0.283338ZM0.16953 19.2791C0.16953 22.6894 1.06107 26.0431 2.75562 28.9989L14.0746 22.5098C13.515 21.5336 13.2167 20.4178 13.2167 19.2791H0.16953ZM2.22636 23.6913L0.0848875 30.1152L12.4624 34.2414L14.6039 27.8174L2.22636 23.6913ZM0.0830731 30.1207C-0.722075 32.5431 -0.138521 35.2138 1.60904 37.0797L11.1319 28.1609C12.6575 29.7899 13.1668 32.122 12.4642 34.2359L0.0830731 30.1207ZM1.60909 37.0797C2.95345 38.5151 4.80717 39.2835 6.6931 39.2835V26.2364C8.33859 26.2364 9.95717 26.9067 11.1318 28.1609L1.60909 37.0797ZM6.6931 39.2835C7.29719 39.2835 7.89001 39.2049 8.45818 39.0561L5.15256 26.4347C5.64647 26.3053 6.16415 26.2364 6.6931 26.2364V39.2835ZM8.46538 39.0542L15.4785 37.2089L12.1585 24.5912L5.14536 26.4366L8.46538 39.0542ZM10.8572 36.7128C13.5979 38.1091 16.6536 38.8416 19.732 38.8416V25.7944C18.7086 25.7944 17.6829 25.5474 16.7799 25.0874L10.8572 36.7128ZM19.732 38.8416C30.5248 38.8416 39.2944 30.0719 39.2944 19.2791H26.2473C26.2473 22.8662 23.3191 25.7944 19.732 25.7944V38.8416ZM39.2944 19.2791C39.2944 8.48629 30.5248 -0.283338 19.732 -0.283338V12.7638C23.3191 12.7638 26.2473 15.692 26.2473 19.2791H39.2944ZM19.732 24.9104C19.037 24.9104 18.3261 24.7747 17.6566 24.5094L12.8507 36.6392C15.0215 37.4993 17.3612 37.9576 19.732 37.9576V24.9104ZM16.6706 36.9421L18.8139 36.4652L15.9799 23.7296L13.8367 24.2065L16.6706 36.9421ZM18.8146 36.4651C22.5649 35.6301 24.9371 31.9122 24.1001 28.1524L11.3647 30.9878C10.6338 27.7045 12.7054 24.4586 15.9792 23.7297L18.8146 36.4651ZM24.1006 28.1549C23.2579 24.3629 19.5244 22.0636 15.835 22.8561L18.5752 35.6122C15.3631 36.3023 12.1007 34.2999 11.3642 30.9853L24.1006 28.1549ZM15.7879 22.8664L12.358 23.6297L15.1924 36.3653L18.6222 35.602L15.7879 22.8664ZM11.983 23.7249C11.4919 23.8652 11.1169 24.0352 10.9029 24.1401C10.7967 24.1921 10.7147 24.2359 10.6787 24.2553C10.6605 24.2651 10.6459 24.2731 10.6452 24.2735C10.6398 24.2764 10.6521 24.2697 10.6644 24.2631C10.6995 24.244 10.9542 24.1039 11.2946 23.9643C11.6628 23.8134 12.19 23.6365 12.8442 23.543L14.6894 36.459C15.3452 36.3654 15.8738 36.188 16.2434 36.0365C16.5851 35.8964 16.8411 35.7556 16.8777 35.7358C16.8902 35.729 16.9029 35.7221 16.8978 35.7248C16.8974 35.7251 16.8832 35.7328 16.8653 35.7424C16.83 35.7615 16.7487 35.8049 16.6432 35.8566C16.4305 35.9608 16.0569 36.1302 15.5674 36.2701L11.983 23.7249ZM11.7039 23.8122C12.3307 23.6033 12.8841 23.5247 13.2906 23.4951C13.6711 23.4674 13.97 23.4808 14.0347 23.4835C14.0552 23.4844 14.0716 23.4852 14.0723 23.4852C14.0784 23.4855 14.0643 23.4848 14.0506 23.4842C14.0218 23.4829 13.9372 23.4793 13.829 23.4781C13.6147 23.4759 13.2 23.4811 12.6864 23.5667L14.8313 36.4363C14.319 36.5217 13.9056 36.5268 13.6927 36.5246C13.5851 36.5234 13.5012 36.5198 13.473 36.5186C13.4597 36.518 13.4459 36.5173 13.4523 36.5176C13.4534 36.5177 13.4701 36.5185 13.4909 36.5193C13.557 36.5221 13.8572 36.5356 14.239 36.5077C14.6469 36.478 15.2016 36.3992 15.8297 36.1898L11.7039 23.8122ZM12.0984 23.6928L5.71024 25.3741L9.03112 37.9916L15.4193 36.3102L12.0984 23.6928ZM13.5595 33.7458L15.5056 27.9074L3.12799 23.7816L1.18188 29.6199L13.5595 33.7458ZM15.5033 27.9142C16.1502 25.9807 15.9123 23.8807 14.8911 22.1557L3.66382 28.8023C2.77348 27.2983 2.56472 25.4652 3.13024 23.7748L15.5033 27.9142ZM14.8857 22.1466C14.3742 21.2857 14.1007 20.2938 14.1007 19.2791H1.05352C1.05352 22.6323 1.95574 25.9276 3.66922 28.8114L14.8857 22.1466ZM14.1007 19.2791C14.1007 16.1798 16.6326 13.6478 19.732 13.6478V0.600653C9.42653 0.600653 1.05352 8.97441 1.05352 19.2791H14.1007ZM19.732 13.6478C22.8314 13.6478 25.3633 16.1798 25.3633 19.2791H38.4104C38.4104 8.97441 30.0374 0.600653 19.732 0.600653V13.6478ZM25.3633 19.2791C25.3633 22.3784 22.8314 24.9104 19.732 24.9104V37.9576C30.0374 37.9576 38.4104 29.5838 38.4104 19.2791H25.3633Z" fill="white" mask="url(#path-2-inside-1_74_1166)"/>
<mask id="path-4-inside-2_74_1166" fill="white">
<path d="M19.721 6.90332C12.8905 6.90332 7.33408 12.4598 7.33408 19.2902C7.33408 21.451 7.89926 23.5739 8.96999 25.4416L6.9356 31.5444C6.88689 31.6909 6.92216 31.8517 7.02756 31.9643C7.10818 32.0503 7.21987 32.097 7.33408 32.097C7.36977 32.097 7.40546 32.0923 7.44073 32.0831L14.1032 30.33C15.834 31.2118 17.7726 31.6771 19.721 31.6771C26.5514 31.6771 32.1078 26.1206 32.1078 19.2902C32.1078 12.4598 26.5514 6.90332 19.721 6.90332ZM19.721 30.8373C18.2648 30.8373 16.8157 30.5551 15.4666 30.0206L17.5027 29.5675C17.729 29.5171 17.8717 29.2929 17.8214 29.0666C17.771 28.8398 17.5472 28.6987 17.3204 28.7475L14.062 29.4726C14.0591 29.4735 14.057 29.4756 14.0541 29.476C14.0515 29.4768 14.049 29.476 14.0465 29.4764L7.97778 31.0737L9.82657 25.5273C9.8652 25.4118 9.85134 25.285 9.7892 25.18C8.73233 23.4014 8.17387 21.3649 8.17387 19.2902C8.17387 12.9233 13.3537 7.74311 19.721 7.74311C26.0882 7.74311 31.268 12.9233 31.268 19.2902C31.268 25.657 26.0882 30.8373 19.721 30.8373Z"/>
</mask>
<path d="M19.721 6.90332C12.8905 6.90332 7.33408 12.4598 7.33408 19.2902C7.33408 21.451 7.89926 23.5739 8.96999 25.4416L6.9356 31.5444C6.88689 31.6909 6.92216 31.8517 7.02756 31.9643C7.10818 32.0503 7.21987 32.097 7.33408 32.097C7.36977 32.097 7.40546 32.0923 7.44073 32.0831L14.1032 30.33C15.834 31.2118 17.7726 31.6771 19.721 31.6771C26.5514 31.6771 32.1078 26.1206 32.1078 19.2902C32.1078 12.4598 26.5514 6.90332 19.721 6.90332ZM19.721 30.8373C18.2648 30.8373 16.8157 30.5551 15.4666 30.0206L17.5027 29.5675C17.729 29.5171 17.8717 29.2929 17.8214 29.0666C17.771 28.8398 17.5472 28.6987 17.3204 28.7475L14.062 29.4726C14.0591 29.4735 14.057 29.4756 14.0541 29.476C14.0515 29.4768 14.049 29.476 14.0465 29.4764L7.97778 31.0737L9.82657 25.5273C9.8652 25.4118 9.85134 25.285 9.7892 25.18C8.73233 23.4014 8.17387 21.3649 8.17387 19.2902C8.17387 12.9233 13.3537 7.74311 19.721 7.74311C26.0882 7.74311 31.268 12.9233 31.268 19.2902C31.268 25.657 26.0882 30.8373 19.721 30.8373Z" fill="white"/>
<path d="M8.96999 25.4416L15.1587 27.5047L16.0829 24.7323L14.6295 22.1971L8.96999 25.4416ZM6.9356 31.5444L0.746837 29.4813L0.745025 29.4868L6.9356 31.5444ZM7.02756 31.9643L2.26615 36.4236L2.2662 36.4237L7.02756 31.9643ZM7.44073 32.0831L9.09354 38.3938L9.10074 38.3919L7.44073 32.0831ZM14.1032 30.33L17.0645 24.5173L14.8484 23.3883L12.4432 24.0212L14.1032 30.33ZM15.4666 30.0206L14.0496 23.6528L-6.67592 28.2646L13.0637 36.0855L15.4666 30.0206ZM17.5027 29.5675L18.9196 35.9353L18.9203 35.9352L17.5027 29.5675ZM17.8214 29.0666L11.4531 30.4817L11.4537 30.4842L17.8214 29.0666ZM17.3204 28.7475L15.9503 22.3694L15.9268 22.3744L15.9033 22.3797L17.3204 28.7475ZM14.062 29.4726L12.6449 23.1048L12.456 23.1469L12.2699 23.2L14.062 29.4726ZM14.0541 29.476L13.1315 23.018L12.5492 23.1012L11.9911 23.2872L14.0541 29.476ZM14.0465 29.4764L12.974 23.0416L12.6771 23.0911L12.3861 23.1677L14.0465 29.4764ZM7.97778 31.0737L1.78897 29.0107L-2.02481 40.4521L9.63822 37.3824L7.97778 31.0737ZM9.82657 25.5273L3.64002 23.4576L3.63777 23.4644L9.82657 25.5273ZM9.7892 25.18L15.4028 21.8568L15.3974 21.8477L9.7892 25.18ZM19.721 0.379748C9.28767 0.379748 0.810508 8.85691 0.810508 19.2902H13.8577C13.8577 16.0626 16.4934 13.4269 19.721 13.4269V0.379748ZM0.810508 19.2902C0.810508 22.5868 1.6723 25.8287 3.31049 28.6862L14.6295 22.1971C14.1262 21.3192 13.8577 20.3152 13.8577 19.2902H0.810508ZM2.78123 23.3786L0.74684 29.4813L13.1244 33.6074L15.1587 27.5047L2.78123 23.3786ZM0.745025 29.4868C-0.0575585 31.9014 0.524138 34.5636 2.26615 36.4236L11.789 27.5049C13.3202 29.1398 13.8313 31.4804 13.1262 33.602L0.745025 29.4868ZM2.2662 36.4237C3.60632 37.8545 5.45416 38.6205 7.33408 38.6205V25.5734C8.98557 25.5734 10.61 26.2461 11.7889 27.5048L2.2662 36.4237ZM7.33408 38.6205C7.93629 38.6205 8.52723 38.5421 9.09354 38.3938L5.78793 25.7724C6.28369 25.6425 6.80325 25.5734 7.33408 25.5734V38.6205ZM9.10074 38.3919L15.7632 36.6389L12.4432 24.0212L5.78072 25.7743L9.10074 38.3919ZM11.1418 36.1427C13.7915 37.4926 16.7451 38.2006 19.721 38.2006V25.1535C18.8001 25.1535 17.8765 24.931 17.0645 24.5173L11.1418 36.1427ZM19.721 38.2006C30.1542 38.2006 38.6314 29.7235 38.6314 19.2902H25.5842C25.5842 22.5177 22.9485 25.1535 19.721 25.1535V38.2006ZM38.6314 19.2902C38.6314 8.85691 30.1542 0.379748 19.721 0.379748V13.4269C22.9485 13.4269 25.5842 16.0626 25.5842 19.2902H38.6314ZM19.721 24.3137C19.1027 24.3137 18.468 24.1928 17.8695 23.9557L13.0637 36.0855C15.1634 36.9174 17.4269 37.3608 19.721 37.3608V24.3137ZM16.8836 36.3884L18.9196 35.9353L16.0857 23.1997L14.0496 23.6528L16.8836 36.3884ZM18.9203 35.9352C22.6587 35.1029 25.0234 31.3967 24.189 27.6489L11.4537 30.4842C10.7201 27.1891 12.7993 23.9314 16.085 23.1998L18.9203 35.9352ZM24.1896 27.6514C23.3496 23.8714 19.6278 21.5794 15.9503 22.3694L18.6905 35.1255C15.4665 35.8181 12.1924 33.8083 11.4531 30.4817L24.1896 27.6514ZM15.9033 22.3797L12.6449 23.1048L15.4792 35.8404L18.7376 35.1152L15.9033 22.3797ZM12.2699 23.2C11.7788 23.3404 11.4038 23.5103 11.1898 23.6152C11.0837 23.6672 11.0017 23.711 10.9657 23.7304C10.9475 23.7402 10.933 23.7481 10.9322 23.7485C10.9268 23.7515 10.9392 23.7447 10.9514 23.7381C10.9866 23.719 11.2413 23.5789 11.5817 23.4393C11.95 23.2884 12.4772 23.1114 13.1315 23.018L14.9766 35.934C15.6324 35.8403 16.161 35.663 16.5306 35.5115C16.8723 35.3714 17.1282 35.2306 17.1647 35.2108C17.1773 35.204 17.1899 35.1971 17.1848 35.1999C17.1844 35.2001 17.1702 35.2079 17.1523 35.2175C17.117 35.2365 17.0356 35.28 16.9301 35.3317C16.7175 35.4359 16.3438 35.6053 15.8542 35.7452L12.2699 23.2ZM11.9911 23.2872C12.618 23.0782 13.1714 22.9997 13.578 22.97C13.9585 22.9423 14.2574 22.9557 14.3222 22.9584C14.3427 22.9593 14.3591 22.9601 14.3598 22.9601C14.3659 22.9604 14.3518 22.9597 14.3381 22.9591C14.3093 22.9578 14.2248 22.9542 14.1166 22.9531C13.9023 22.9508 13.4876 22.956 12.974 23.0416L15.119 35.9112C14.6067 35.9966 14.1932 36.0017 13.9802 35.9995C13.8726 35.9984 13.7887 35.9947 13.7605 35.9935C13.7472 35.9929 13.7334 35.9922 13.7398 35.9925C13.7409 35.9926 13.7576 35.9934 13.7784 35.9942C13.8444 35.997 14.1446 36.0105 14.5264 35.9826C14.9342 35.9529 15.4889 35.8741 16.117 35.6648L11.9911 23.2872ZM12.3861 23.1677L6.31734 24.765L9.63822 37.3824L15.7069 35.7851L12.3861 23.1677ZM14.1666 33.1366L16.0154 27.5902L3.63777 23.4644L1.78897 29.0107L14.1666 33.1366ZM16.0131 27.597C16.6579 25.6696 16.4207 23.5762 15.4028 21.8568L4.17557 28.5033C3.28196 26.9938 3.07247 25.1541 3.64002 23.4576L16.0131 27.597ZM15.3974 21.8477C14.9415 21.0804 14.6974 20.1956 14.6974 19.2902H1.6503C1.6503 22.5341 2.52312 25.7223 4.18097 28.5124L15.3974 21.8477ZM14.6974 19.2902C14.6974 16.5261 16.9567 14.2667 19.721 14.2667V1.21954C9.75066 1.21954 1.6503 9.32062 1.6503 19.2902H14.6974ZM19.721 14.2667C22.4852 14.2667 24.7445 16.5261 24.7445 19.2902H37.7916C37.7916 9.32062 29.6912 1.21954 19.721 1.21954V14.2667ZM24.7445 19.2902C24.7445 22.0543 22.4852 24.3137 19.721 24.3137V37.3608C29.6912 37.3608 37.7916 29.2598 37.7916 19.2902H24.7445Z" fill="white" mask="url(#path-4-inside-2_74_1166)"/>
<path d="M28.1601 23.2645C27.5378 22.0884 25.4971 20.8689 25.2619 20.731C24.8389 20.4906 24.3974 20.415 24.0186 20.5202C23.7291 20.6006 23.4931 20.7818 23.3326 21.0453C23.0338 21.4024 22.6621 21.8214 22.5733 21.8904C21.9041 22.343 21.3954 22.2926 20.8168 21.7144L17.2976 18.1953C16.719 17.6163 16.6678 17.1075 17.1168 16.445C17.1906 16.3499 17.6092 15.9778 17.9663 15.6794C18.2302 15.5194 18.4114 15.2834 18.4914 14.9935C18.5966 14.6147 18.5215 14.1727 18.278 13.7453C18.1427 13.515 16.9237 11.4738 15.7471 10.8515C15.104 10.5107 14.3261 10.6283 13.8125 11.1428L13.035 11.9203C11.77 13.1848 11.3125 14.6208 11.675 16.1886C11.9733 17.4797 12.8392 18.849 14.2487 20.2576L18.754 24.7629C20.1631 26.172 21.5324 27.0378 22.8234 27.3366C23.1704 27.4171 23.5112 27.4568 23.8449 27.4568C25.0184 27.4568 26.107 26.9614 27.0918 25.9762L27.8688 25.1987C28.3837 24.6851 28.5004 23.9076 28.1601 23.2645ZM27.2438 24.5742L26.4668 25.3516C25.4175 26.4014 24.2913 26.7682 23.0228 26.4756C21.8952 26.2148 20.6696 25.4281 19.379 24.1379L14.8737 19.6326C13.5835 18.3425 12.7968 17.1168 12.536 15.9893C12.2425 14.7212 12.6102 13.5945 13.6595 12.5452L14.437 11.7678C14.5842 11.6201 14.7782 11.5432 14.9754 11.5432C15.0969 11.5432 15.2193 11.5724 15.3334 11.6325C16.1422 12.0608 17.1827 13.6255 17.5124 14.1873C17.6309 14.395 17.6791 14.6129 17.6393 14.757C17.6185 14.8326 17.5739 14.886 17.4943 14.9307L17.4276 14.9767C17.0974 15.2516 16.5237 15.7431 16.3889 15.9424C16.2678 16.1214 16.1794 16.2978 16.106 16.4733C15.9619 16.1258 15.8501 15.7422 15.8072 15.3258C15.782 15.0832 15.5641 14.913 15.3219 14.9316C15.0792 14.9572 14.9024 15.1742 14.9276 15.4173C15.1544 17.6021 16.8521 19.0236 16.9246 19.0828C16.9316 19.0885 16.94 19.0903 16.9471 19.0956L20.1914 22.3394C20.2037 22.3518 20.2165 22.3606 20.2294 22.3726C20.2426 22.3902 20.2497 22.4106 20.2656 22.4265C20.3248 22.4853 21.7414 23.859 23.9006 24.0835C23.9161 24.0849 23.9315 24.0857 23.9465 24.0857C24.1702 24.0857 24.362 23.9165 24.3859 23.6897C24.4111 23.4466 24.2347 23.2296 23.9916 23.204C23.4909 23.1523 23.0356 23.0241 22.6351 22.8667C22.7784 22.8 22.9224 22.7213 23.0679 22.6227C23.2676 22.4879 23.7587 21.9138 24.0341 21.5836L24.08 21.5173C24.1247 21.4377 24.1782 21.3931 24.2542 21.3723C24.3974 21.3308 24.6162 21.3812 24.819 21.4961C25.3857 21.8285 26.9495 22.8676 27.3786 23.6782C27.5364 23.9757 27.4825 24.3359 27.2438 24.5742Z" fill="white"/>
</g>
<defs>
<clipPath id="clip0_74_1166">
<rect width="26.5197" height="26.5197" fill="white" transform="translate(6.25098 6.24023)"/>
</clipPath>
</defs>
</svg>
